<svg width="78" height="53" viewBox="0 0 78 53" fill="none" xmlns="http://www.w3.org/2000/svg">
<path d="M12.3594 20.25V24.8906C12.3594 25.776 12.3698 26.5521 12.3906 27.2188C12.4115 27.875 12.4427 28.4427 12.4844 28.9219C12.526 29.401 12.5729 29.8021 12.625 30.125C12.6875 30.4479 12.75 30.7188 12.8125 30.9375V31H9.0625V30.9375C9.125 30.7188 9.18229 30.4479 9.23438 30.125C9.29688 29.8021 9.34375 29.401 9.375 28.9219C9.41667 28.4427 9.44792 27.875 9.46875 27.2188C9.5 26.5521 9.51562 25.776 9.51562 24.8906V20.5625L2.53125 11.0625C2.29167 10.7396 2.05208 10.4427 1.8125 10.1719C1.58333 9.90104 1.36458 9.66667 1.15625 9.46875C0.947917 9.26042 0.760417 9.08854 0.59375 8.95312C0.427083 8.81771 0.296875 8.71875 0.203125 8.65625V8.59375H4.9375C4.9375 8.83333 5.03646 9.22917 5.23438 9.78125C5.44271 10.3229 5.8125 10.9635 6.34375 11.7031L11.4688 18.7188L16.4844 11.3906C16.6615 11.1302 16.8385 10.8646 17.0156 10.5938C17.1927 10.3229 17.3542 10.0625 17.5 9.8125C17.6458 9.5625 17.7604 9.33333 17.8438 9.125C17.9375 8.91667 17.9844 8.73958 17.9844 8.59375H21.0312V8.65625C20.8021 8.85417 20.4948 9.15104 20.1094 9.54688C19.724 9.93229 19.3073 10.4479 18.8594 11.0938L12.3594 20.25ZM20.7812 22.5469C20.7812 21.3177 21.0104 20.1771 21.4688 19.125C21.9375 18.0729 22.5729 17.1615 23.375 16.3906C24.1771 15.6094 25.125 15 26.2188 14.5625C27.3125 14.125 28.4844 13.9062 29.7344 13.9062C30.9635 13.9062 32.1198 14.1146 33.2031 14.5312C34.2969 14.9375 35.2448 15.5208 36.0469 16.2812C36.8594 17.0417 37.5 17.9635 37.9688 19.0469C38.4375 20.1302 38.6719 21.3438 38.6719 22.6875C38.6719 23.8021 38.474 24.8802 38.0781 25.9219C37.6823 26.9531 37.1042 27.8698 36.3438 28.6719C35.5833 29.4635 34.6458 30.099 33.5312 30.5781C32.4167 31.0469 31.1406 31.2812 29.7031 31.2812C28.4844 31.2812 27.3333 31.0781 26.25 30.6719C25.1667 30.2656 24.2188 29.6875 23.4062 28.9375C22.5938 28.1771 21.9531 27.2604 21.4844 26.1875C21.0156 25.1042 20.7812 23.8906 20.7812 22.5469ZM30.0938 30.1719C30.8854 30.1719 31.6146 30.0156 32.2812 29.7031C32.9479 29.3906 33.5208 28.9427 34 28.3594C34.4896 27.776 34.8646 27.0677 35.125 26.2344C35.3958 25.3906 35.5312 24.4427 35.5312 23.3906C35.5312 22.1927 35.401 21.0833 35.1406 20.0625C34.8906 19.0417 34.5052 18.1615 33.9844 17.4219C33.474 16.6719 32.8333 16.0885 32.0625 15.6719C31.2917 15.2448 30.3906 15.0312 29.3594 15.0312C28.5677 15.0312 27.8385 15.1823 27.1719 15.4844C26.5052 15.7865 25.9271 16.224 25.4375 16.7969C24.9583 17.3698 24.5833 18.0729 24.3125 18.9062C24.0417 19.7396 23.9062 20.6875 23.9062 21.75C23.9062 22.9375 24.0365 24.0469 24.2969 25.0781C24.5677 26.099 24.9583 26.9896 25.4688 27.75C25.9896 28.5 26.6354 29.0938 27.4062 29.5312C28.1771 29.9583 29.0729 30.1719 30.0938 30.1719ZM57.2188 29.1094C57.2188 29.2448 57.2031 29.3594 57.1719 29.4531C57.151 29.5469 57.0938 29.625 57 29.6875C56.2604 30.2083 55.3958 30.625 54.4062 30.9375C53.4271 31.2396 52.276 31.3906 50.9531 31.3906C49.4635 31.3906 48.1042 31.1771 46.875 30.75C45.6562 30.3229 44.6094 29.7292 43.7344 28.9688C42.8594 28.1979 42.1771 27.276 41.6875 26.2031C41.2083 25.1302 40.9688 23.9427 40.9688 22.6406C40.9688 21.526 41.1875 20.4427 41.625 19.3906C42.0729 18.3385 42.7135 17.4062 43.5469 16.5938C44.3802 15.7812 45.3906 15.1302 46.5781 14.6406C47.776 14.151 49.125 13.9062 50.625 13.9062C51.4062 13.9062 52.1458 13.9531 52.8438 14.0469C53.5417 14.1302 54.2135 14.2656 54.8594 14.4531L56.0312 17.2656L55.875 17.375C55.25 16.6562 54.4948 16.0885 53.6094 15.6719C52.724 15.2448 51.7083 15.0312 50.5625 15.0312C49.625 15.0312 48.7604 15.1823 47.9688 15.4844C47.1875 15.7865 46.5052 16.2292 45.9219 16.8125C45.349 17.3854 44.901 18.0938 44.5781 18.9375C44.2552 19.7812 44.0938 20.7396 44.0938 21.8125C44.0938 23.0208 44.2448 24.1406 44.5469 25.1719C44.849 26.2031 45.3021 27.099 45.9062 27.8594C46.5104 28.6094 47.2552 29.1979 48.1406 29.625C49.0365 30.0521 50.0781 30.2656 51.2656 30.2656C52.2865 30.2656 53.0781 30.1354 53.6406 29.875C54.2135 29.6146 54.5 29.3177 54.5 28.9844V28.1562C54.5 27.6146 54.4948 27.1458 54.4844 26.75C54.474 26.3542 54.4583 26.0156 54.4375 25.7344C54.4167 25.4427 54.3854 25.1927 54.3438 24.9844C54.3125 24.776 54.2708 24.5833 54.2188 24.4062V24.3438H57.5469V24.4062C57.4948 24.5625 57.4479 24.75 57.4062 24.9688C57.3646 25.1875 57.3281 25.4479 57.2969 25.75C57.276 26.0521 57.2552 26.4062 57.2344 26.8125C57.224 27.2188 57.2188 27.6875 57.2188 28.2188V29.1094ZM71.1562 25.7188C70.875 25.7188 70.5208 25.7188 70.0938 25.7188C69.6771 25.7188 69.2188 25.7188 68.7188 25.7188C68.2188 25.7188 67.7031 25.7188 67.1719 25.7188C66.6406 25.7188 66.1354 25.724 65.6562 25.7344C65.1771 25.7344 64.7396 25.7396 64.3438 25.75C63.9479 25.75 63.6406 25.75 63.4219 25.75L62.8438 26.9688C62.5938 27.4688 62.3802 27.9062 62.2031 28.2812C62.026 28.6458 61.8802 28.9688 61.7656 29.25C61.651 29.5312 61.5677 29.776 61.5156 29.9844C61.4635 30.1823 61.4375 30.3698 61.4375 30.5469C61.4375 30.6615 61.4427 30.75 61.4531 30.8125C61.4635 30.8646 61.4792 30.9062 61.5 30.9375V31H58.75V30.9375C58.8229 30.8646 58.9375 30.7083 59.0938 30.4688C59.25 30.2188 59.4271 29.9167 59.625 29.5625C59.8333 29.2083 60.0521 28.8073 60.2812 28.3594C60.5208 27.9115 60.7552 27.4479 60.9844 26.9688L67.3594 13.8125H68.5312L74.7812 26.9688C75.0208 27.4688 75.2604 27.9479 75.5 28.4062C75.75 28.8646 75.9792 29.276 76.1875 29.6406C76.3958 29.9948 76.5781 30.2917 76.7344 30.5312C76.8906 30.7604 76.9948 30.8958 77.0469 30.9375V31H73.0469C73.0677 30.9167 73.0781 30.8438 73.0781 30.7812C73.0781 30.7083 73.0781 30.6302 73.0781 30.5469C73.0781 30.3177 73.026 30.0417 72.9219 29.7188C72.8281 29.3958 72.7083 29.0677 72.5625 28.7344C72.4271 28.3906 72.2812 28.0625 72.125 27.75C71.9792 27.4375 71.8594 27.1771 71.7656 26.9688L71.1562 25.7188ZM64.0312 24.5H64.9844C65.4219 24.5 65.8854 24.5 66.375 24.5C66.875 24.4896 67.375 24.4844 67.875 24.4844C68.375 24.4844 68.8594 24.4844 69.3281 24.4844C69.7969 24.474 70.2188 24.4688 70.5938 24.4688L67.3594 17.5625L64.0312 24.5Z" fill="white"/>
<path d="M10.0625 38.4844C9.44792 38.4844 8.89323 38.513 8.39844 38.5703C7.90365 38.6224 7.47656 38.6797 7.11719 38.7422C6.70052 38.8203 6.32812 38.9062 6 39L6.22656 37.7344C6.28906 37.7396 6.38281 37.7448 6.50781 37.75C6.63281 37.7552 6.77083 37.7604 6.92188 37.7656C7.07812 37.7708 7.23958 37.776 7.40625 37.7812C7.57812 37.7812 7.73958 37.7839 7.89062 37.7891C8.04167 37.7891 8.17448 37.7917 8.28906 37.7969C8.40885 37.7969 8.49479 37.7969 8.54688 37.7969H13.0078C13.0599 37.7969 13.1432 37.7969 13.2578 37.7969C13.3776 37.7917 13.513 37.7891 13.6641 37.7891C13.8151 37.7839 13.974 37.7812 14.1406 37.7812C14.3125 37.776 14.474 37.7708 14.625 37.7656C14.7812 37.7604 14.9219 37.7552 15.0469 37.75C15.1719 37.7448 15.2656 37.7396 15.3281 37.7344L15.5547 39C15.2214 38.9062 14.8464 38.8203 14.4297 38.7422C14.0703 38.6797 13.6432 38.6224 13.1484 38.5703C12.6536 38.513 12.099 38.4844 11.4844 38.4844V45.9453C11.4844 46.388 11.4896 46.776 11.5 47.1094C11.5156 47.4375 11.5312 47.7214 11.5469 47.9609C11.5677 48.2005 11.5911 48.401 11.6172 48.5625C11.6484 48.724 11.6797 48.8594 11.7109 48.9688V49H9.84375V48.9688C9.875 48.8594 9.90365 48.724 9.92969 48.5625C9.95573 48.401 9.97917 48.2005 10 47.9609C10.0208 47.7214 10.0365 47.4375 10.0469 47.1094C10.0573 46.776 10.0625 46.388 10.0625 45.9453V38.4844ZM16.1172 40.6016C16.6276 40.6016 17.151 40.6016 17.6875 40.6016C18.224 40.5964 18.7214 40.5911 19.1797 40.5859C19.638 40.5755 20.0312 40.5651 20.3594 40.5547C20.6927 40.5443 20.9115 40.5286 21.0156 40.5078L20.7109 41.3516C20.5703 41.3151 20.4115 41.2812 20.2344 41.25C20.0781 41.224 19.888 41.2005 19.6641 41.1797C19.4453 41.1536 19.1901 41.1406 18.8984 41.1406C18.7943 41.1406 18.6745 41.1458 18.5391 41.1562C18.4036 41.1615 18.2734 41.1693 18.1484 41.1797C18.0026 41.1901 17.8542 41.2005 17.7031 41.2109V44.2969C18.125 44.2917 18.5052 44.2812 18.8438 44.2656C19.1823 44.25 19.4714 44.2292 19.7109 44.2031C19.9922 44.1823 20.2396 44.1536 20.4531 44.1172L20.2656 45.0469C19.9792 45.0104 19.6901 44.9792 19.3984 44.9531C19.1484 44.9271 18.8724 44.9062 18.5703 44.8906C18.2682 44.8698 17.9792 44.8594 17.7031 44.8594V48.4062C18.1875 48.4062 18.6328 48.388 19.0391 48.3516C19.4453 48.3099 19.7995 48.2656 20.1016 48.2188C20.4557 48.1615 20.776 48.0964 21.0625 48.0234L20.8828 49.0469C20.8047 49.0417 20.6771 49.0339 20.5 49.0234C20.3281 49.0182 20.1458 49.013 19.9531 49.0078C19.7656 49.0078 19.5885 49.0052 19.4219 49C19.2552 49 19.1406 49 19.0781 49H16.1172V48.9688C16.1536 48.8594 16.1849 48.7188 16.2109 48.5469C16.2422 48.375 16.2656 48.1641 16.2812 47.9141C16.3021 47.6589 16.3177 47.3568 16.3281 47.0078C16.3385 46.6589 16.3438 46.25 16.3438 45.7812V43.8125C16.3438 43.3438 16.3385 42.9375 16.3281 42.5938C16.3177 42.2448 16.3021 41.9453 16.2812 41.6953C16.2656 41.4401 16.2422 41.2266 16.2109 41.0547C16.1849 40.8828 16.1536 40.7422 16.1172 40.6328V40.6016ZM24.3906 44.9219C24.4948 44.9375 24.599 44.9505 24.7031 44.9609C24.8125 44.9661 24.9167 44.9688 25.0156 44.9688C25.6667 44.9688 26.1589 44.7943 26.4922 44.4453C26.8307 44.0964 27 43.5729 27 42.875C27 42.3021 26.8646 41.849 26.5938 41.5156C26.3281 41.1823 25.9349 41.0156 25.4141 41.0156C25.2474 41.0156 25.099 41.0234 24.9688 41.0391C24.8438 41.0495 24.737 41.0625 24.6484 41.0781C24.5495 41.099 24.4635 41.1198 24.3906 41.1406V44.9219ZM25.5859 45.4297C25.4818 45.4453 25.3776 45.4557 25.2734 45.4609C25.1745 45.4609 25.0729 45.4609 24.9688 45.4609C24.8854 45.4609 24.7943 45.4583 24.6953 45.4531C24.5964 45.4479 24.4948 45.4401 24.3906 45.4297V45.8125C24.3906 46.276 24.3958 46.6823 24.4062 47.0312C24.4167 47.375 24.4297 47.6719 24.4453 47.9219C24.4661 48.1719 24.4896 48.3828 24.5156 48.5547C24.5417 48.7214 24.5729 48.8594 24.6094 48.9688V49H22.8047V48.9688C22.8411 48.8594 22.8724 48.7188 22.8984 48.5469C22.9297 48.375 22.9531 48.1641 22.9688 47.9141C22.9896 47.6589 23.0052 47.3568 23.0156 47.0078C23.026 46.6589 23.0312 46.25 23.0312 45.7812V43.8125C23.0312 43.3438 23.026 42.9375 23.0156 42.5938C23.0052 42.2448 22.9896 41.9453 22.9688 41.6953C22.9531 41.4401 22.9297 41.2266 22.8984 41.0547C22.8724 40.8828 22.8411 40.7422 22.8047 40.6328V40.6016C22.888 40.6068 22.9766 40.612 23.0703 40.6172C23.1484 40.6224 23.2344 40.6276 23.3281 40.6328C23.4271 40.6328 23.526 40.6328 23.625 40.6328C23.7917 40.6328 24.0391 40.6172 24.3672 40.5859C24.6953 40.5547 25.0807 40.5391 25.5234 40.5391C25.9714 40.5391 26.3776 40.5938 26.7422 40.7031C27.112 40.8125 27.4271 40.9688 27.6875 41.1719C27.9531 41.375 28.1562 41.6224 28.2969 41.9141C28.4427 42.2057 28.5156 42.5312 28.5156 42.8906C28.5156 43.1719 28.4766 43.4297 28.3984 43.6641C28.3203 43.8932 28.2109 44.1016 28.0703 44.2891C27.9297 44.4714 27.763 44.6328 27.5703 44.7734C27.3776 44.9141 27.1641 45.0365 26.9297 45.1406L28.5625 47.4453C28.7031 47.6328 28.8438 47.8125 28.9844 47.9844C29.1302 48.1562 29.2682 48.3099 29.3984 48.4453C29.5286 48.5807 29.651 48.6953 29.7656 48.7891C29.8802 48.8776 29.9766 48.9375 30.0547 48.9688V49H28.0078C28.0078 48.9531 27.974 48.8724 27.9062 48.7578C27.8438 48.638 27.7682 48.5156 27.6797 48.3906C27.5964 48.2604 27.5104 48.1354 27.4219 48.0156C27.3385 47.8958 27.276 47.8073 27.2344 47.75L25.5859 45.4297ZM32.375 44.9219C32.4792 44.9375 32.5833 44.9505 32.6875 44.9609C32.7969 44.9661 32.901 44.9688 33 44.9688C33.651 44.9688 34.1432 44.7943 34.4766 44.4453C34.8151 44.0964 34.9844 43.5729 34.9844 42.875C34.9844 42.3021 34.849 41.849 34.5781 41.5156C34.3125 41.1823 33.9193 41.0156 33.3984 41.0156C33.2318 41.0156 33.0833 41.0234 32.9531 41.0391C32.8281 41.0495 32.7214 41.0625 32.6328 41.0781C32.5339 41.099 32.4479 41.1198 32.375 41.1406V44.9219ZM33.5703 45.4297C33.4661 45.4453 33.362 45.4557 33.2578 45.4609C33.1589 45.4609 33.0573 45.4609 32.9531 45.4609C32.8698 45.4609 32.7786 45.4583 32.6797 45.4531C32.5807 45.4479 32.4792 45.4401 32.375 45.4297V45.8125C32.375 46.276 32.3802 46.6823 32.3906 47.0312C32.401 47.375 32.4141 47.6719 32.4297 47.9219C32.4505 48.1719 32.474 48.3828 32.5 48.5547C32.526 48.7214 32.5573 48.8594 32.5938 48.9688V49H30.7891V48.9688C30.8255 48.8594 30.8568 48.7188 30.8828 48.5469C30.9141 48.375 30.9375 48.1641 30.9531 47.9141C30.974 47.6589 30.9896 47.3568 31 47.0078C31.0104 46.6589 31.0156 46.25 31.0156 45.7812V43.8125C31.0156 43.3438 31.0104 42.9375 31 42.5938C30.9896 42.2448 30.974 41.9453 30.9531 41.6953C30.9375 41.4401 30.9141 41.2266 30.8828 41.0547C30.8568 40.8828 30.8255 40.7422 30.7891 40.6328V40.6016C30.8724 40.6068 30.9609 40.612 31.0547 40.6172C31.1328 40.6224 31.2188 40.6276 31.3125 40.6328C31.4115 40.6328 31.5104 40.6328 31.6094 40.6328C31.776 40.6328 32.0234 40.6172 32.3516 40.5859C32.6797 40.5547 33.0651 40.5391 33.5078 40.5391C33.9557 40.5391 34.362 40.5938 34.7266 40.7031C35.0964 40.8125 35.4115 40.9688 35.6719 41.1719C35.9375 41.375 36.1406 41.6224 36.2812 41.9141C36.4271 42.2057 36.5 42.5312 36.5 42.8906C36.5 43.1719 36.4609 43.4297 36.3828 43.6641C36.3047 43.8932 36.1953 44.1016 36.0547 44.2891C35.9141 44.4714 35.7474 44.6328 35.5547 44.7734C35.362 44.9141 35.1484 45.0365 34.9141 45.1406L36.5469 47.4453C36.6875 47.6328 36.8281 47.8125 36.9688 47.9844C37.1146 48.1562 37.2526 48.3099 37.3828 48.4453C37.513 48.5807 37.6354 48.6953 37.75 48.7891C37.8646 48.8776 37.9609 48.9375 38.0391 48.9688V49H35.9922C35.9922 48.9531 35.9583 48.8724 35.8906 48.7578C35.8281 48.638 35.7526 48.5156 35.6641 48.3906C35.5807 48.2604 35.4948 48.1354 35.4062 48.0156C35.3229 47.8958 35.2604 47.8073 35.2188 47.75L33.5703 45.4297ZM38.7734 40.6016C39.2839 40.6016 39.8073 40.6016 40.3438 40.6016C40.8802 40.5964 41.3776 40.5911 41.8359 40.5859C42.2943 40.5755 42.6875 40.5651 43.0156 40.5547C43.349 40.5443 43.5677 40.5286 43.6719 40.5078L43.3672 41.3516C43.2266 41.3151 43.0677 41.2812 42.8906 41.25C42.7344 41.224 42.5443 41.2005 42.3203 41.1797C42.1016 41.1536 41.8464 41.1406 41.5547 41.1406C41.4505 41.1406 41.3307 41.1458 41.1953 41.1562C41.0599 41.1615 40.9297 41.1693 40.8047 41.1797C40.6589 41.1901 40.5104 41.2005 40.3594 41.2109V44.2969C40.7812 44.2917 41.1615 44.2812 41.5 44.2656C41.8385 44.25 42.1276 44.2292 42.3672 44.2031C42.6484 44.1823 42.8958 44.1536 43.1094 44.1172L42.9219 45.0469C42.6354 45.0104 42.3464 44.9792 42.0547 44.9531C41.8047 44.9271 41.5286 44.9062 41.2266 44.8906C40.9245 44.8698 40.6354 44.8594 40.3594 44.8594V48.4062C40.8438 48.4062 41.2891 48.388 41.6953 48.3516C42.1016 48.3099 42.4557 48.2656 42.7578 48.2188C43.112 48.1615 43.4323 48.0964 43.7188 48.0234L43.5391 49.0469C43.4609 49.0417 43.3333 49.0339 43.1562 49.0234C42.9844 49.0182 42.8021 49.013 42.6094 49.0078C42.4219 49.0078 42.2448 49.0052 42.0781 49C41.9115 49 41.7969 49 41.7344 49H38.7734V48.9688C38.8099 48.8594 38.8411 48.7188 38.8672 48.5469C38.8984 48.375 38.9219 48.1641 38.9375 47.9141C38.9583 47.6589 38.974 47.3568 38.9844 47.0078C38.9948 46.6589 39 46.25 39 45.7812V43.8125C39 43.3438 38.9948 42.9375 38.9844 42.5938C38.974 42.2448 38.9583 41.9453 38.9375 41.6953C38.9219 41.4401 38.8984 41.2266 38.8672 41.0547C38.8411 40.8828 38.8099 40.7422 38.7734 40.6328V40.6016ZM45.0781 45.4297V44.3125H50.3594V45.4297H45.0781ZM59.0781 47.2578L58.4688 48.7109C58.3177 48.7786 58.1458 48.8411 57.9531 48.8984C57.7656 48.9505 57.5703 48.9948 57.3672 49.0312C57.1641 49.0677 56.9557 49.0938 56.7422 49.1094C56.5339 49.1302 56.3359 49.1406 56.1484 49.1406C55.4922 49.1406 54.8828 49.0443 54.3203 48.8516C53.763 48.6589 53.2812 48.3776 52.875 48.0078C52.4688 47.6328 52.151 47.1745 51.9219 46.6328C51.6927 46.0911 51.5781 45.4714 51.5781 44.7734C51.5781 44.1589 51.6979 43.5885 51.9375 43.0625C52.1771 42.5365 52.5078 42.0807 52.9297 41.6953C53.3516 41.3047 53.849 41 54.4219 40.7812C55 40.5625 55.625 40.4531 56.2969 40.4531C56.4479 40.4531 56.6068 40.4609 56.7734 40.4766C56.9453 40.487 57.1146 40.5052 57.2812 40.5312C57.4479 40.5573 57.6094 40.5885 57.7656 40.625C57.9219 40.6562 58.0677 40.6901 58.2031 40.7266L58.7891 42.1328L58.6953 42.1875C58.5547 42.0156 58.3854 41.8568 58.1875 41.7109C57.9948 41.5651 57.7812 41.4427 57.5469 41.3438C57.3177 41.2396 57.0755 41.1589 56.8203 41.1016C56.5651 41.0443 56.3047 41.0156 56.0391 41.0156C55.6068 41.0156 55.2109 41.0911 54.8516 41.2422C54.4974 41.3932 54.1927 41.6146 53.9375 41.9062C53.6875 42.1927 53.4922 42.5443 53.3516 42.9609C53.2109 43.3776 53.1406 43.849 53.1406 44.375C53.1406 44.9688 53.2083 45.5234 53.3438 46.0391C53.4792 46.5495 53.6823 46.9948 53.9531 47.375C54.224 47.75 54.5625 48.0469 54.9688 48.2656C55.375 48.4792 55.849 48.5859 56.3906 48.5859C56.651 48.5859 56.9062 48.5547 57.1562 48.4922C57.4115 48.4245 57.651 48.3307 57.875 48.2109C58.1042 48.0911 58.3125 47.9479 58.5 47.7812C58.6875 47.6094 58.849 47.4193 58.9844 47.2109L59.0781 47.2578ZM60.6406 43.8125C60.6406 43.3438 60.6354 42.9375 60.625 42.5938C60.6146 42.2448 60.599 41.9453 60.5781 41.6953C60.5625 41.4401 60.5391 41.2266 60.5078 41.0547C60.4818 40.8828 60.4505 40.7422 60.4141 40.6328V40.6016H62.2266V40.6328C62.1901 40.7422 62.1562 40.8828 62.125 41.0547C62.099 41.2266 62.0755 41.4401 62.0547 41.6953C62.0391 41.9453 62.026 42.2448 62.0156 42.5938C62.0052 42.9375 62 43.3438 62 43.8125V45.7812C62 46.25 62.0052 46.6589 62.0156 47.0078C62.026 47.3568 62.0391 47.6589 62.0547 47.9141C62.0755 48.1641 62.099 48.375 62.125 48.5469C62.1562 48.7188 62.1901 48.8594 62.2266 48.9688V49H60.4141V48.9688C60.4505 48.8594 60.4818 48.7188 60.5078 48.5469C60.5391 48.375 60.5625 48.1641 60.5781 47.9141C60.599 47.6589 60.6146 47.3568 60.625 47.0078C60.6354 46.6589 60.6406 46.25 60.6406 45.7812V43.8125ZM64.3984 40.6016C64.9089 40.6016 65.4323 40.6016 65.9688 40.6016C66.5052 40.5964 67.0026 40.5911 67.4609 40.5859C67.9193 40.5755 68.3125 40.5651 68.6406 40.5547C68.974 40.5443 69.1927 40.5286 69.2969 40.5078L68.9922 41.3516C68.8516 41.3151 68.6927 41.2812 68.5156 41.25C68.3594 41.224 68.1693 41.2005 67.9453 41.1797C67.7266 41.1536 67.4714 41.1406 67.1797 41.1406C67.0755 41.1406 66.9557 41.1458 66.8203 41.1562C66.6849 41.1615 66.5547 41.1693 66.4297 41.1797C66.2839 41.1901 66.1354 41.2005 65.9844 41.2109V44.2969C66.4062 44.2917 66.7865 44.2812 67.125 44.2656C67.4635 44.25 67.7526 44.2292 67.9922 44.2031C68.2734 44.1823 68.5208 44.1536 68.7344 44.1172L68.5469 45.0469C68.2604 45.0104 67.9714 44.9792 67.6797 44.9531C67.4297 44.9271 67.1536 44.9062 66.8516 44.8906C66.5495 44.8698 66.2604 44.8594 65.9844 44.8594V48.4062C66.4688 48.4062 66.9141 48.388 67.3203 48.3516C67.7266 48.3099 68.0807 48.2656 68.3828 48.2188C68.737 48.1615 69.0573 48.0964 69.3438 48.0234L69.1641 49.0469C69.0859 49.0417 68.9583 49.0339 68.7812 49.0234C68.6094 49.0182 68.4271 49.013 68.2344 49.0078C68.0469 49.0078 67.8698 49.0052 67.7031 49C67.5365 49 67.4219 49 67.3594 49H64.3984V48.9688C64.4349 48.8594 64.4661 48.7188 64.4922 48.5469C64.5234 48.375 64.5469 48.1641 64.5625 47.9141C64.5833 47.6589 64.599 47.3568 64.6094 47.0078C64.6198 46.6589 64.625 46.25 64.625 45.7812V43.8125C64.625 43.3438 64.6198 42.9375 64.6094 42.5938C64.599 42.2448 64.5833 41.9453 64.5625 41.6953C64.5469 41.4401 64.5234 41.2266 64.4922 41.0547C64.4661 40.8828 64.4349 40.7422 64.3984 40.6328V40.6016ZM72.6719 48.3906C73.1562 48.3906 73.6016 48.3724 74.0078 48.3359C74.4193 48.2943 74.7786 48.25 75.0859 48.2031C75.4453 48.1458 75.7708 48.0807 76.0625 48.0078L75.8828 49.0469C75.8099 49.0417 75.6849 49.0339 75.5078 49.0234C75.3359 49.0182 75.1536 49.013 74.9609 49.0078C74.7682 49.0078 74.5885 49.0052 74.4219 49C74.2552 49 74.1406 49 74.0781 49H71.0859V48.9688C71.1224 48.8594 71.1536 48.7188 71.1797 48.5469C71.2109 48.375 71.2344 48.1641 71.25 47.9141C71.2708 47.6589 71.2865 47.3568 71.2969 47.0078C71.3073 46.6589 71.3125 46.25 71.3125 45.7812V43.8125C71.3125 43.3438 71.3073 42.9375 71.2969 42.5938C71.2865 42.2448 71.2708 41.9453 71.25 41.6953C71.2344 41.4401 71.2109 41.2266 71.1797 41.0547C71.1536 40.8828 71.1224 40.7422 71.0859 40.6328V40.6016H72.8906V40.6328C72.8542 40.7422 72.8229 40.8828 72.7969 41.0547C72.7708 41.2266 72.7474 41.4401 72.7266 41.6953C72.7109 41.9453 72.6979 42.2448 72.6875 42.5938C72.6771 42.9375 72.6719 43.3438 72.6719 43.8125V48.3906Z" fill="white"/>
</svg>
